<svg width="27" height="27" viewBox="0 0 27 27" fill="none" xmlns="http://www.w3.org/2000/svg">
<path d="M26.8333 19.0584C26.8333 23.9118 23.94 26.8051 19.0866 26.8051H17.5C16.7666 26.8051 16.1666 26.2051 16.1666 25.4718V17.7784C16.1666 17.4184 16.4599 17.1118 16.8199 17.1118L19.1666 17.0718C19.3533 17.0584 19.5133 16.9251 19.5533 16.7384L20.02 14.1918C20.06 13.9518 19.8733 13.7251 19.62 13.7251L16.7799 13.7651C16.4066 13.7651 16.1133 13.4718 16.1 13.1118L16.0466 9.84509C16.0466 9.63176 16.2199 9.44511 16.4466 9.44511L19.6466 9.39176C19.8733 9.39176 20.0466 9.21845 20.0466 8.99178L19.9933 5.79175C19.9933 5.56508 19.82 5.39176 19.5933 5.39176L15.9933 5.44511C13.78 5.48511 12.02 7.29843 12.06 9.51176L12.1266 13.1784C12.14 13.5518 11.8466 13.8451 11.4733 13.8584L9.87329 13.8851C9.64662 13.8851 9.47331 14.0584 9.47331 14.2851L9.51331 16.8184C9.51331 17.0451 9.68662 17.2184 9.91329 17.2184L11.5133 17.1918C11.8866 17.1918 12.1799 17.4851 12.1933 17.8451L12.3133 25.4451C12.3266 26.1918 11.7266 26.8051 10.9799 26.8051H7.91329C3.05996 26.8051 0.166626 23.9118 0.166626 19.0451V7.88509C0.166626 3.03176 3.05996 0.138428 7.91329 0.138428H19.0866C23.94 0.138428 26.8333 3.03176 26.8333 7.88509V19.0584Z" fill="#1877F2"/>
</svg>
